#!OML:ASF F:\VICON\USERDATA\INSTALL\rory3\rory3.ASF
:FULLY-SPECIFIED
:DEGREES
3566
root -13.8795 17.6684 15.0032 898.256 -11.5229 538.728
lowerback 12.0074 2.6493 0.988704
upperback 1.39313 3.53461 0.37865
thorax -5.22603 1.66496 -0.728873
lowerneck -15.4717 -3.48884 -11.0515
upperneck 34.1056 -7.12224 7.33323
head 15.1403 -4.36474 3.53114
rclavicle -2.31087e-014 1.98785e-015
rhumerus -31.1233 1.82342 -85.756
rradius 45.4191
rwrist -0.310918
rhand -16.9014 9.6469
rfingers 7.12502
rthumb 9.33051 -20.1266
lclavicle -2.31087e-014 1.98785e-015
lhumerus -36.7441 3.84952 85.1142
lradius 30.453
lwrist -6.58011
lhand -19.6614 25.354
lfingers 7.12502
lthumb 6.66665 55.229
rfemur -14.1808 4.57046 21.8727
rtibia 35.7151
rfoot -16.6174 3.00499
rtoes 10.6544
lfemur -11.2234 -25.6222 -13.8877
ltibia 24.6164
lfoot -8.66048 -25.1245
ltoes 7.1366
3567
root -13.9515 17.6528 15.0046 898.204 -9.67127 538.832
lowerback 12.1256 2.75528 0.958688
upperback 1.40422 3.6699 0.422242
thorax -5.28258 1.72947 -0.693914
lowerneck -15.4912 -3.47823 -11.2101
upperneck 34.0492 -7.13633 7.47143
head 15.1332 -4.38333 3.61106
rclavicle -2.6985e-014 3.57812e-015
rhumerus -30.9853 2.30526 -85.8937
rradius 45.5819
rwrist -0.184804
rhand -16.9864 9.72859
rfingers 7.12502
rthumb 9.24845 -20.0486
lclavicle -2.6985e-014 3.57812e-015
lhumerus -36.8472 4.07982 85.1287
lradius 30.3299
lwrist -6.62256
lhand -19.0254 24.3332
lfingers 7.12502
lthumb 7.2806 54.188
rfemur -14.4852 5.28673 21.8146
rtibia 36.0883
rfoot -16.8259 3.75487
rtoes 9.93151
lfemur -10.5975 -24.5174 -13.8066
ltibia 24.1985
lfoot -8.9808 -25.2157
ltoes 6.0291
3568
root -14.0197 17.6435 15.0078 898.175 -7.84765 538.831
lowerback 12.2803 2.86171 0.814161
upperback 1.39365 3.78878 0.402234
thorax -5.38584 1.78772 -0.661781
lowerneck -15.2114 -3.46117 -11.4262
upperneck 33.7297 -7.1604 7.73168
head 14.942 -4.39457 3.75047
rclavicle -4.54223e-014 -1.11319e-014
rhumerus -30.859 2.72639 -86.052
rradius 45.7129
rwrist -0.100397
rhand -16.9127 9.53088
rfingers 7.12502
rthumb 9.31958 -20.2431
lclavicle -4.54223e-014 -1.11319e-014
lhumerus -36.9843 4.15578 85.1227
lradius 30.4385
lwrist -6.85774
lhand -18.1502 25.4533
lfingers 7.12502
lthumb 8.1254 55.2771
rfemur -14.7815 6.0656 21.6394
rtibia 36.3803
rfoot -17.1584 4.47255
rtoes 9.44759
lfemur -9.94851 -23.1573 -13.8964
ltibia 23.889
lfoot -9.10754 -25.8212
ltoes 6.74051
3569
root -14.0876 17.634 15.0083 898.154 -6.12566 538.844
lowerback 12.3482 2.95628 0.711084
upperback 1.44329 3.89179 0.370145
thorax -5.37452 1.83741 -0.656501
lowerneck -15.2833 -3.40854 -11.3821
upperneck 33.623 -7.10306 7.77268
head 14.8997 -4.35998 3.76543
rclavicle -9.93923e-015 0
rhumerus -30.5591 3.07505 -86.1879
rradius 45.6503
rwrist -0.110734
rhand -16.9105 9.43456
rfingers 7.12502
rthumb 9.32172 -20.3393
lclavicle -9.93923e-015 0
lhumerus -37.0837 3.91381 85.2466
lradius 30.7102
lwrist -7.03906
lhand -17.8773 27.591
lfingers 7.12502
lthumb 8.38879 57.4044
rfemur -15.0367 6.75462 21.4755
rtibia 36.615
rfoot -17.4593 5.11211
rtoes 8.51479
lfemur -9.29526 -21.7678 -14.0101
ltibia 23.5958
lfoot -8.86313 -26.7459
ltoes 9.62645
3570
root -14.158 17.6236 15.0021 898.129 -4.44203 538.889
lowerback 12.3663 3.02347 0.650245
upperback 1.51813 3.96317 0.360868
thorax -5.30831 1.87086 -0.642184
lowerneck -15.6809 -3.30979 -11.1608
upperneck 33.7656 -6.94862 7.60869
head 15.0193 -4.28771 3.68064
rclavicle 3.81667e-014 7.55382e-015
rhumerus -30.0667 3.47382 -86.3151
rradius 45.2712
rwrist -0.153194
rhand -17.1203 9.70149
rfingers 7.12502
rthumb 9.11926 -20.0814
lclavicle 3.81667e-014 7.55382e-015
lhumerus -37.1111 3.80918 85.37
lradius 30.8228
lwrist -7.06402
lhand -18.1872 28.5165
lfingers 7.12502
lthumb 8.08969 58.3417
rfemur -15.2273 7.33569 21.3074
rtibia 36.805
rfoot -17.7173 5.79665
rtoes 7.20124
lfemur -8.60739 -20.347 -14.1291
ltibia 23.2373
lfoot -8.47288 -27.2683
ltoes 12.6329
